<svg version="1.1" id="Layer_1" xmlns="http://www.w3.org/2000/svg" xmlns:xlink="http://www.w3.org/1999/xlink" x="0px" y="0px"
	 width="100%" viewBox="0 0 400 460" enable-background="new 0 0 400 460" xml:space="preserve">
<path fill="#FFFFFF" opacity="1.000000" stroke="none" 
	d="
M1.000000,170.000000 
	C1.000000,113.349648 1.000000,57.199303 1.000000,1.024476 
	C134.278275,1.024476 267.556549,1.024476 400.917419,1.024476 
	C400.917419,154.233688 400.917419,307.467438 400.917419,460.850586 
	C267.666779,460.850586 134.333420,460.850586 1.000000,460.850586 
	C1.000000,364.110077 1.000000,267.305054 1.000000,170.000000 
M24.032021,253.434372 
	C32.696918,278.118011 45.468864,300.423279 63.923519,319.031586 
	C107.106415,362.573914 150.609894,405.798309 193.921738,449.213074 
	C195.298676,450.593262 195.999207,452.648254 197.015045,454.388672 
	C197.754135,454.132599 198.493225,453.876495 199.232330,453.620392 
	C200.342682,452.156403 201.299271,450.538849 202.585739,449.250732 
	C243.919708,407.864349 285.385162,366.608826 326.620758,325.124786 
	C375.614838,275.835541 392.840729,216.650742 377.471344,149.266724 
	C355.771179,54.126640 261.348083,-6.293563 164.818954,11.528644 
	C53.862057,32.014652 -12.539130,145.595978 24.032021,253.434372 
z"/>
<path fill="#4D52BF" opacity="1.000000" stroke="none" 
	d="
M23.938358,253.051971 
	C-12.539130,145.595978 53.862057,32.014652 164.818954,11.528644 
	C261.348083,-6.293563 355.771179,54.126640 377.471344,149.266724 
	C392.840729,216.650742 375.614838,275.835541 326.620758,325.124786 
	C285.385162,366.608826 243.919708,407.864349 202.585739,449.250732 
	C201.299271,450.538849 200.342682,452.156403 199.232330,453.620392 
	C198.493225,453.876495 197.754135,454.132599 197.015045,454.388672 
	C195.999207,452.648254 195.298676,450.593262 193.921738,449.213074 
	C150.609894,405.798309 107.106415,362.573914 63.923519,319.031586 
	C45.468864,300.423279 32.696918,278.118011 23.938358,253.051971 
M320.117401,124.390945 
	C311.389618,108.142860 299.794434,94.076401 285.029968,83.243851 
	C236.246780,47.452145 184.243958,42.987255 130.636429,70.945564 
	C77.605469,98.603165 49.542107,161.837936 61.466705,220.430984 
	C74.032005,282.172180 126.662575,326.683197 186.429947,331.287994 
	C226.929947,334.408325 262.709534,322.755737 292.618073,295.533966 
	C340.435822,252.011917 351.467010,182.000870 320.117401,124.390945 
z"/>
<path fill="#FEFEFF" opacity="1.000000" stroke="none" 
	d="
M320.308167,124.708435 
	C351.467010,182.000870 340.435822,252.011917 292.618073,295.533966 
	C262.709534,322.755737 226.929947,334.408325 186.429947,331.287994 
	C126.662575,326.683197 74.032005,282.172180 61.466705,220.430984 
	C49.542107,161.837936 77.605469,98.603165 130.636429,70.945564 
	C184.243958,42.987255 236.246780,47.452145 285.029968,83.243851 
	C299.794434,94.076401 311.389618,108.142860 320.308167,124.708435 
M242.499985,237.157318 
	C258.918793,237.157318 275.337616,237.157318 292.069031,237.157318 
	C292.069031,225.974899 292.071381,215.500793 292.068420,205.026703 
	C292.064636,191.663742 287.819519,187.409286 274.450287,187.408035 
	C223.628998,187.403336 172.807693,187.402710 121.986412,187.419022 
	C119.992882,187.419662 117.982964,187.480469 116.008957,187.733688 
	C109.542686,188.563202 104.678085,192.531021 104.424225,198.864899 
	C103.919708,211.452896 104.274971,224.075333 104.274971,237.157410 
	C150.270660,237.157410 195.885315,237.157410 242.499985,237.157318 
M255.656219,182.152054 
	C261.757721,182.152054 267.859192,182.152054 274.283875,182.152054 
	C274.283875,166.803207 274.352966,152.161865 274.255005,137.521637 
	C274.205261,130.084869 270.951019,126.877350 263.489502,126.870056 
	C220.163956,126.827690 176.838348,126.828674 133.512787,126.868156 
	C125.772041,126.875214 122.694977,130.026642 122.653748,137.913010 
	C122.582329,151.576843 122.630150,165.241348 122.649681,178.905533 
	C122.651031,179.848587 122.832352,180.791382 122.930428,181.738632 
	C130.500626,181.738632 137.703049,181.738632 145.092407,181.738632 
	C145.092407,179.166290 145.083130,177.007217 145.094009,174.848251 
	C145.145340,164.659668 149.548035,160.209106 159.702911,160.160416 
	C167.701294,160.122070 175.717560,159.832001 183.692276,160.268158 
	C188.791840,160.547058 193.830246,161.944214 198.617828,162.790817 
	C203.041550,161.931808 207.592026,160.563248 212.211472,160.265686 
	C219.015350,159.827393 225.868423,160.152573 232.700531,160.152573 
	C249.058167,160.152603 251.313431,162.367722 252.113495,178.641800 
	C252.172882,179.849869 253.794678,180.981125 255.656219,182.152054 
M246.751160,175.681763 
	C246.631393,168.226105 244.813049,165.391388 239.048828,165.243088 
	C228.759644,164.978363 218.455887,165.031097 208.164246,165.243027 
	C204.430344,165.319931 201.261597,167.049606 200.948395,171.358765 
	C200.699844,174.778473 200.898315,178.230652 200.898315,181.811554 
	C216.341721,181.811554 231.331863,181.811554 246.750427,181.811554 
	C246.750427,179.836365 246.750427,178.208313 246.751160,175.681763 
M162.510986,182.160400 
	C173.570084,182.160400 184.629166,182.160400 195.993500,182.160400 
	C195.993500,178.521744 196.056839,175.555023 195.978897,172.592010 
	C195.857086,167.961502 193.137711,165.373901 188.792542,165.271545 
	C178.332642,165.025116 167.858795,165.020981 157.399155,165.273972 
	C152.811676,165.384933 150.086411,168.114899 150.045166,172.972092 
	C150.020248,175.907822 150.040588,178.843933 150.040588,182.160492 
	C154.269485,182.160492 157.893387,182.160492 162.510986,182.160400 
M104.245064,250.489014 
	C104.146553,262.963837 104.153648,260.876587 114.554451,261.009125 
	C115.878998,261.026001 117.403641,261.416718 118.478828,260.896667 
	C119.852173,260.232391 121.783707,258.886749 121.870453,257.715942 
	C122.243881,252.675461 122.030006,247.591476 122.030006,242.431793 
	C115.858749,242.431793 110.319466,242.431793 104.245262,242.431793 
	C104.245262,244.995026 104.245262,247.269913 104.245064,250.489014 
M276.787231,242.171158 
	C276.209900,242.425858 275.136108,242.666931 275.128693,242.937286 
	C274.983917,248.210495 273.550934,254.021988 275.292389,258.621094 
	C277.254822,263.803650 283.446991,260.275085 287.719543,260.831390 
	C289.058746,261.005768 291.853058,259.264191 291.940979,258.226654 
	C292.380707,253.039108 292.142212,247.794067 292.142212,242.150879 
	C286.942749,242.150879 282.340057,242.150879 276.787231,242.171158 
z"/>
<path fill="#4E53C0" opacity="1.000000" stroke="none" 
	d="
M241.999969,237.157364 
	C195.885315,237.157410 150.270660,237.157410 104.274971,237.157410 
	C104.274971,224.075333 103.919708,211.452896 104.424225,198.864899 
	C104.678085,192.531021 109.542686,188.563202 116.008957,187.733688 
	C117.982964,187.480469 119.992882,187.419662 121.986412,187.419022 
	C172.807693,187.402710 223.628998,187.403336 274.450287,187.408035 
	C287.819519,187.409286 292.064636,191.663742 292.068420,205.026703 
	C292.071381,215.500793 292.069031,225.974899 292.069031,237.157318 
	C275.337616,237.157318 258.918793,237.157318 241.999969,237.157364 
z"/>
<path fill="#4C51BF" opacity="1.000000" stroke="none" 
	d="
M255.173172,182.150085 
	C253.794678,180.981125 252.172882,179.849869 252.113495,178.641800 
	C251.313431,162.367722 249.058167,160.152603 232.700531,160.152573 
	C225.868423,160.152573 219.015350,159.827393 212.211472,160.265686 
	C207.592026,160.563248 203.041550,161.931808 198.617828,162.790817 
	C193.830246,161.944214 188.791840,160.547058 183.692276,160.268158 
	C175.717560,159.832001 167.701294,160.122070 159.702911,160.160416 
	C149.548035,160.209106 145.145340,164.659668 145.094009,174.848251 
	C145.083130,177.007217 145.092407,179.166290 145.092407,181.738632 
	C137.703049,181.738632 130.500626,181.738632 122.930428,181.738632 
	C122.832352,180.791382 122.651031,179.848587 122.649681,178.905533 
	C122.630150,165.241348 122.582329,151.576843 122.653748,137.913010 
	C122.694977,130.026642 125.772041,126.875214 133.512787,126.868156 
	C176.838348,126.828674 220.163956,126.827690 263.489502,126.870056 
	C270.951019,126.877350 274.205261,130.084869 274.255005,137.521637 
	C274.352966,152.161865 274.283875,166.803207 274.283875,182.152054 
	C267.859192,182.152054 261.757721,182.152054 255.173172,182.150085 
z"/>
<path fill="#5054C0" opacity="1.000000" stroke="none" 
	d="
M246.750793,176.131012 
	C246.750427,178.208313 246.750427,179.836365 246.750427,181.811554 
	C231.331863,181.811554 216.341721,181.811554 200.898315,181.811554 
	C200.898315,178.230652 200.699844,174.778473 200.948395,171.358765 
	C201.261597,167.049606 204.430344,165.319931 208.164246,165.243027 
	C218.455887,165.031097 228.759644,164.978363 239.048828,165.243088 
	C244.813049,165.391388 246.631393,168.226105 246.750793,176.131012 
z"/>
<path fill="#4F54C0" opacity="1.000000" stroke="none" 
	d="
M162.014130,182.160446 
	C157.893387,182.160492 154.269485,182.160492 150.040588,182.160492 
	C150.040588,178.843933 150.020248,175.907822 150.045166,172.972092 
	C150.086411,168.114899 152.811676,165.384933 157.399155,165.273972 
	C167.858795,165.020981 178.332642,165.025116 188.792542,165.271545 
	C193.137711,165.373901 195.857086,167.961502 195.978897,172.592010 
	C196.056839,175.555023 195.993500,178.521744 195.993500,182.160400 
	C184.629166,182.160400 173.570084,182.160400 162.014130,182.160446 
z"/>
<path fill="#5257C1" opacity="1.000000" stroke="none" 
	d="
M104.245163,250.016907 
	C104.245262,247.269913 104.245262,244.995026 104.245262,242.431793 
	C110.319466,242.431793 115.858749,242.431793 122.030006,242.431793 
	C122.030006,247.591476 122.243881,252.675461 121.870453,257.715942 
	C121.783707,258.886749 119.852173,260.232391 118.478828,260.896667 
	C117.403641,261.416718 115.878998,261.026001 114.554451,261.009125 
	C104.153648,260.876587 104.146553,262.963837 104.245163,250.016907 
z"/>
<path fill="#4F54C0" opacity="1.000000" stroke="none" 
	d="
M277.262268,242.161011 
	C282.340057,242.150879 286.942749,242.150879 292.142212,242.150879 
	C292.142212,247.794067 292.380707,253.039108 291.940979,258.226654 
	C291.853058,259.264191 289.058746,261.005768 287.719543,260.831390 
	C283.446991,260.275085 277.254822,263.803650 275.292389,258.621094 
	C273.550934,254.021988 274.983917,248.210495 275.128693,242.937286 
	C275.136108,242.666931 276.209900,242.425858 277.262268,242.161011 
z"/>
</svg>